<svg xmlns="http://www.w3.org/2000/svg" viewBox="0 0 1200 240" width="1200" height="240" fill="none" role="img" aria-label="Top-VPN — split-tunnel VPN">
<defs>
<linearGradient id="vbg" x1="0" y1="0" x2="1" y2="1"><stop offset="0" stop-color="#6d7ce2"/><stop offset="0.5" stop-color="#3f8fe0"/><stop offset="1" stop-color="#27b6e8"/></linearGradient>
<radialGradient id="vglow" cx="0.5" cy="0.5" r="0.5"><stop offset="0" stop-color="#8ea6ff" stop-opacity="0.55"/><stop offset="1" stop-color="#8ea6ff" stop-opacity="0"/></radialGradient>
<filter id="vsh" x="-50%" y="-50%" width="200%" height="200%"><feDropShadow dx="0" dy="3" stdDeviation="4" flood-color="#0b2a55" flood-opacity="0.35"/></filter>
<style>@keyframes pf{0%,100%{opacity:.85}50%{opacity:1}} .pf{animation:pf 4s ease-in-out infinite}</style>
</defs>
<rect width="1200" height="240" rx="20" fill="url(#vbg)"/>
<circle cx="250" cy="70" r="180" fill="url(#vglow)"/>
<g transform="translate(74 116)">
 <text x="0" y="0" font-size="56" font-weight="800" fill="#ffffff" style="font-family:-apple-system,'Helvetica Neue','Inter',Arial,sans-serif;">Top-VPN</text>
 <rect x="3" y="18" width="220" height="4" rx="2" fill="#ffffff" opacity="0.9"/>
 <text x="3" y="52" font-size="17" font-weight="500" fill="#eaf3ff" style="font-family:-apple-system,'Helvetica Neue','Inter',Arial,sans-serif;">Geo split-tunnel VPN · iOS &amp; macOS · sing-box packet tunnel</text>
</g>
<!-- white split-Y node (app icon glyph) -->
<g transform="translate(1040 120)" fill="#ffffff" filter="url(#vsh)" class="pf">
 <path d="M0 8 L0 -8 L-54 -46 M0 8 L0 -8 L54 -46 M0 8 L0 66" stroke="#ffffff" stroke-width="14" stroke-linecap="round" fill="none"/>
 <circle cx="-58" cy="-50" r="20"/><circle cx="58" cy="-50" r="20"/><circle cx="0" cy="66" r="20"/><circle cx="0" cy="0" r="7" fill="#3f8fe0"/>
</g>
</svg>